<?xml version="1.0" standalone="no"?>
<!DOCTYPE svg PUBLIC "-//W3C//DTD SVG 20010904//EN"
 "http://www.w3.org/TR/2001/REC-SVG-20010904/DTD/svg10.dtd">
<svg version="1.0" xmlns="http://www.w3.org/2000/svg"
 width="700.000000pt" height="700.000000pt" viewBox="0 0 700.000000 700.000000"
 preserveAspectRatio="xMidYMid meet">
<metadata>
Created by potrace 1.14, written by Peter Selinger 2001-2017
</metadata>
<g transform="translate(0.000000,700.000000) scale(0.100000,-0.100000)"
fill="#000000" stroke="none">
<path d="M2827 6634 c-1 -1 -114 -4 -252 -8 -316 -8 -461 -17 -625 -37 -47 -6
-101 -13 -120 -15 -138 -17 -340 -66 -473 -115 -233 -86 -445 -234 -585 -408
-20 -25 -39 -48 -42 -51 -15 -14 -110 -173 -134 -225 -72 -153 -140 -383 -162
-550 -3 -27 -8 -52 -9 -55 -3 -5 -8 -50 -20 -170 -31 -318 -39 -640 -39 -1515
1 -895 8 -1184 40 -1495 6 -59 31 -239 39 -280 13 -65 17 -90 16 -95 0 -2 6
-23 14 -45 8 -22 12 -40 10 -40 -11 0 72 -216 121 -318 101 -207 230 -361 417
-496 173 -124 448 -232 687 -271 19 -3 46 -7 60 -10 14 -2 45 -7 70 -10 25 -3
56 -8 70 -10 38 -7 237 -24 355 -31 217 -12 596 -18 1250 -18 789 1 1130 8
1365 28 30 3 87 8 125 11 192 16 476 76 632 133 348 128 610 363 763 684 48
102 114 285 125 350 3 18 13 62 21 97 8 36 17 81 19 100 3 20 9 68 14 106 18
127 21 159 27 255 3 52 7 106 9 120 25 142 25 2068 1 2490 -9 143 -31 376 -41
431 -2 9 -6 34 -9 55 -4 22 -8 46 -11 54 -2 8 -6 33 -10 54 -9 62 -51 213 -83
301 -153 413 -443 695 -863 839 -97 33 -271 76 -364 91 -367 56 -634 67 -1653
69 -414 1 -754 1 -755 0z m1763 -448 c68 -4 219 -14 305 -21 93 -7 247 -25
255 -30 3 -2 26 -6 50 -10 246 -35 483 -143 628 -285 173 -170 282 -435 318
-775 3 -27 7 -61 9 -74 2 -12 7 -60 11 -105 3 -44 8 -97 9 -116 27 -278 27
-2217 0 -2540 -1 -20 -6 -76 -10 -125 -4 -49 -8 -96 -10 -104 -1 -9 -6 -43 -9
-76 -17 -143 -69 -353 -117 -467 -65 -153 -193 -312 -317 -395 -98 -65 -274
-140 -364 -157 -15 -2 -31 -7 -35 -9 -9 -6 -233 -43 -303 -51 -300 -34 -554
-40 -1510 -40 -1016 0 -1254 7 -1585 50 -267 34 -491 111 -640 219 -270 196
-386 469 -440 1025 -24 251 -30 537 -29 1415 0 716 7 1190 19 1267 2 13 6 61
9 108 4 47 8 96 10 110 3 14 7 51 11 83 3 32 8 64 10 70 2 7 6 28 9 47 3 20
12 65 21 100 9 36 18 75 20 87 9 41 69 188 99 243 120 222 323 374 601 453 92
26 223 52 311 63 27 3 60 7 74 9 23 3 74 7 225 20 28 3 145 8 260 11 116 4
211 7 213 9 4 4 1824 -4 1892 -9z"/>
<path d="M3803 5113 c-46 -16 -95 -58 -116 -100 -12 -23 -52 -153 -62 -198 -1
-5 -7 -30 -14 -55 -7 -25 -14 -52 -16 -60 -2 -8 -42 -159 -90 -335 -48 -176
-88 -327 -90 -335 -2 -8 -29 -109 -60 -225 -31 -115 -65 -244 -76 -285 -11
-41 -29 -109 -41 -150 -11 -41 -35 -133 -54 -205 -19 -71 -36 -137 -39 -145
-2 -8 -44 -166 -94 -350 -49 -184 -99 -371 -112 -415 -42 -153 -43 -198 -10
-264 78 -152 307 -154 384 -4 9 16 43 130 76 254 33 123 70 260 82 304 12 44
34 127 49 185 15 58 62 232 104 388 42 155 110 409 151 565 41 155 82 305 90
332 7 28 46 169 85 315 38 146 87 326 107 400 20 76 36 157 36 186 -2 145
-149 245 -290 197z"/>
<path d="M2429 4585 c-25 -6 -58 -20 -75 -32 -28 -20 -383 -379 -434 -439
-112 -132 -173 -219 -220 -313 -93 -187 -93 -416 0 -602 75 -149 176 -273 449
-551 211 -215 249 -243 333 -241 156 4 255 159 197 309 -5 15 -90 109 -188
208 -358 365 -423 453 -423 577 0 113 79 224 377 527 231 234 255 269 250 357
-5 106 -89 197 -193 209 -16 1 -48 -2 -73 -9z"/>
<path d="M4469 4586 c-61 -16 -104 -48 -136 -104 -37 -62 -38 -150 -2 -210 13
-23 103 -121 200 -219 330 -335 402 -435 401 -556 -1 -113 -78 -220 -375 -523
-117 -119 -220 -231 -229 -249 -95 -180 97 -381 283 -297 65 29 452 426 576
590 231 307 244 604 40 907 -67 101 -173 221 -376 427 -232 237 -273 262 -382
234z"/>
</g>
</svg>
