<?xml version="1.0" standalone="no"?>
<!DOCTYPE svg PUBLIC "-//W3C//DTD SVG 20010904//EN"
 "http://www.w3.org/TR/2001/REC-SVG-20010904/DTD/svg10.dtd">
<svg version="1.0" xmlns="http://www.w3.org/2000/svg"
 width="1071.000000pt" height="1071.000000pt" viewBox="0 0 1071.000000 1071.000000"
 preserveAspectRatio="xMidYMid meet">
<metadata>
Created by potrace 1.14, written by Peter Selinger 2001-2017
</metadata>
<g transform="translate(0.000000,1071.000000) scale(0.100000,-0.100000)"
fill="#000000" stroke="none">
<path d="M0 7060 c0 -2105 4 -3650 9 -3650 5 0 11 9 14 20 3 13 14 20 30 20
13 0 30 7 37 15 7 8 25 15 40 15 17 0 37 10 51 25 40 42 125 105 142 105 10 0
17 5 17 11 0 5 13 15 29 20 18 7 33 21 39 38 7 20 19 30 40 34 17 3 39 18 49
33 10 14 30 39 45 56 15 16 30 43 33 59 8 37 44 65 95 73 22 3 63 23 91 43 39
27 63 37 102 40 58 5 97 20 97 38 0 7 13 18 30 24 16 6 42 16 57 21 16 6 39
10 53 10 54 -2 116 26 184 82 39 32 74 58 79 58 5 0 16 9 25 21 10 11 25 21
34 23 29 4 86 63 93 96 4 18 4 53 1 78 -5 34 -4 43 3 32 9 -13 11 -13 11 3 0
9 5 17 10 17 6 0 20 15 30 34 13 20 36 40 63 51 50 22 282 252 303 302 20 45
64 74 103 67 35 -7 58 7 72 44 5 13 17 26 27 29 10 2 24 17 31 34 7 17 20 29
31 29 17 0 60 47 60 67 0 16 76 44 103 38 22 -6 29 -2 47 27 11 18 20 42 20
52 0 22 59 149 72 154 4 2 22 18 39 35 23 23 33 27 39 17 4 -7 13 -9 19 -6 6
4 15 -4 21 -19 8 -22 13 -24 30 -15 20 10 70 81 70 98 0 4 14 23 31 40 18 18
33 43 34 56 4 35 34 75 55 73 10 -1 16 -5 13 -10 -2 -4 0 -14 6 -20 9 -12 -3
-73 -40 -197 -6 -19 -13 -48 -16 -65 -3 -16 -14 -41 -24 -54 -11 -13 -19 -30
-19 -37 0 -8 -18 -51 -40 -98 -22 -46 -40 -89 -40 -95 0 -5 -11 -30 -25 -55
-42 -74 -31 -112 29 -101 27 6 34 10 26 19 -12 15 6 36 31 36 10 0 21 5 24 10
4 6 11 8 17 4 14 -9 68 46 68 70 1 22 30 48 67 60 15 5 28 1 42 -13 25 -25 26
-37 5 -45 -8 -3 -12 -11 -9 -16 4 -6 3 -10 -2 -9 -34 6 -43 -3 -49 -50 -6 -50
-8 -52 -76 -80 -27 -10 -39 -31 -18 -31 6 0 10 -18 10 -39 l0 -40 60 0 c33 0
62 5 65 10 4 5 23 9 44 9 65 0 100 11 107 33 4 12 12 27 19 33 24 24 80 54
103 54 12 0 31 9 41 19 11 11 21 17 24 15 3 -3 22 11 42 31 21 19 45 34 54 33
10 -2 19 9 26 30 11 31 29 47 82 71 13 6 23 17 23 25 0 9 8 23 19 33 10 10 21
30 24 44 9 36 55 79 84 79 32 0 63 17 63 35 0 17 54 78 62 70 3 -3 11 1 17 9
9 10 20 12 42 6 16 -5 27 -5 25 -1 -3 4 2 31 11 59 15 48 34 65 47 43 8 -12
105 -22 124 -11 9 5 25 11 36 14 14 5 17 12 12 32 -4 15 -3 23 2 20 6 -3 12 4
15 15 3 11 14 23 25 26 11 2 29 18 41 34 12 16 31 29 42 29 20 0 20 4 15 108
-5 96 -6 124 -3 184 1 12 7 16 18 13 23 -8 27 9 28 122 1 60 8 110 21 145 10
29 23 100 30 158 6 58 15 121 21 140 7 25 7 60 -2 120 -13 96 -12 179 2 196 5
6 12 43 15 80 3 38 10 71 15 72 5 2 9 18 9 35 0 24 -3 28 -10 17 -8 -12 -10
-9 -10 12 0 37 20 78 38 78 8 0 12 6 9 13 -2 6 0 39 5 72 9 54 13 154 19 434
1 74 6 103 22 130 12 22 21 59 23 95 2 48 8 64 30 87 15 16 27 41 29 61 2 18
3 37 4 42 1 6 5 6 11 0 5 -5 12 -42 15 -82 2 -40 9 -82 16 -93 6 -11 8 -28 4
-36 -6 -18 -14 -84 -19 -156 -2 -35 2 -51 12 -54 11 -5 11 -7 0 -14 -10 -6
-10 -11 -1 -20 17 -17 21 -12 32 51 5 30 14 71 19 91 5 20 6 57 2 83 -6 39 -3
51 17 81 13 19 30 35 37 35 7 0 19 -20 26 -44 9 -31 16 -43 26 -39 11 4 12 9
3 19 -12 15 -6 44 9 44 10 0 23 -84 22 -138 0 -19 -7 -52 -14 -74 -12 -34 -12
-40 1 -45 16 -6 35 15 27 29 -3 4 -1 8 5 8 6 0 8 7 5 15 -4 8 -1 15 5 15 6 0
11 -10 12 -22 0 -22 1 -22 10 2 6 14 16 28 23 32 11 6 23 66 30 153 1 6 7 20
14 33 7 12 10 27 7 32 -3 5 -1 11 5 15 5 3 10 25 11 48 0 23 3 36 6 30 10 -27
21 -11 28 42 3 30 11 53 16 50 8 -5 14 38 10 72 -1 6 5 45 14 85 8 40 15 84
15 96 0 30 24 24 28 -6 2 -12 7 -22 12 -22 11 0 19 41 26 125 3 39 12 80 19
92 8 11 17 51 21 87 4 36 10 66 14 66 5 0 6 8 3 18 -2 10 5 35 16 56 12 20 21
50 21 67 0 16 7 43 15 60 14 26 14 33 1 59 -11 22 -12 38 -4 67 5 21 12 53 15
71 4 24 12 34 30 38 24 6 48 47 38 64 -3 5 -12 7 -20 3 -22 -8 -18 12 5 28 21
15 43 83 64 199 7 36 20 77 30 92 12 18 16 37 12 53 -5 18 -2 25 9 25 8 0 15
7 15 15 0 8 7 15 16 15 14 0 16 10 12 72 -5 66 -4 73 19 94 14 13 22 27 19 33
-8 12 4 42 14 36 15 -10 31 25 29 62 -5 72 0 95 21 100 16 4 18 9 9 24 -7 15
-6 19 6 19 8 0 15 8 15 18 0 10 3 22 7 26 4 3 8 16 10 28 2 12 10 30 19 39 11
12 12 19 4 24 -8 5 -6 13 6 26 9 10 20 40 25 66 5 26 14 50 19 51 6 2 10 8 10
12 0 8 37 69 58 95 4 6 8 21 9 34 2 31 1 30 69 40 34 5 -1179 9 -2848 10
l-2908 1 0 -3650z m2045 -637 c13 -31 14 -43 4 -63 -12 -25 -12 -24 -26 23
-22 74 -5 105 22 40z m948 -501 c3 -12 0 -25 -6 -30 -7 -4 -12 -11 -13 -17 -3
-23 -17 -55 -25 -55 -5 0 -9 -9 -9 -20 0 -10 -9 -24 -19 -30 -16 -8 -23 -6
-35 12 -19 27 -20 54 -3 65 12 7 46 71 61 116 6 17 6 17 24 0 11 -10 22 -28
25 -41z m-123 -146 c0 -8 -7 -16 -15 -20 -13 -4 -14 -2 -5 14 13 23 20 26 20
6z"/>
<path d="M8090 10700 c41 -4 58 -7 37 -8 -21 -1 -36 -6 -33 -11 3 -5 -18 -12
-47 -16 -52 -8 -52 -8 -17 -15 l35 -7 -35 -4 c-35 -4 -48 -20 -67 -83 -4 -16
-17 -34 -28 -40 -27 -16 -54 -47 -61 -73 -3 -13 -12 -23 -20 -23 -16 0 -44
-50 -44 -80 0 -32 -18 -60 -40 -60 -13 0 -17 -5 -14 -14 3 -8 -2 -17 -13 -20
-16 -5 -35 -41 -57 -109 -3 -10 -11 -15 -17 -12 -6 4 -13 -2 -16 -14 -3 -11
-17 -26 -32 -32 -21 -9 -31 -24 -40 -58 -22 -80 -31 -98 -64 -122 -18 -13 -34
-22 -36 -20 -7 6 -21 -25 -42 -93 -19 -63 -52 -126 -71 -134 -5 -2 -8 -15 -8
-28 0 -13 -6 -24 -12 -24 -10 0 -10 -2 0 -9 11 -7 11 -9 -1 -14 -8 -3 -17 -23
-21 -44 -12 -70 -40 -123 -64 -123 -14 0 -40 -71 -47 -128 -5 -37 -24 -86 -31
-79 -12 12 -34 -22 -34 -51 0 -16 -6 -35 -14 -41 -20 -16 -29 -73 -14 -82 9
-6 7 -14 -8 -31 -21 -23 -36 -64 -42 -115 -1 -7 -8 -13 -15 -13 -8 0 -19 -19
-26 -42 -7 -24 -17 -53 -22 -66 -5 -13 -9 -41 -9 -62 0 -25 -6 -42 -16 -48
-13 -7 -14 -13 -5 -30 7 -14 8 -23 1 -27 -5 -3 -10 -14 -10 -24 0 -10 -7 -24
-15 -31 -8 -7 -15 -23 -15 -37 0 -13 -7 -26 -15 -29 -8 -3 -14 -18 -14 -32 1
-15 -4 -63 -11 -107 -20 -140 -21 -149 -24 -180 -2 -16 -6 -38 -11 -49 -5 -12
-3 -21 6 -27 11 -7 11 -9 -3 -9 -11 0 -18 -12 -23 -42 -4 -24 -11 -48 -16 -54
-5 -6 -11 -73 -15 -150 -3 -76 -10 -152 -15 -169 -8 -26 -5 -321 6 -555 2 -41
4 -177 5 -303 2 -125 5 -229 9 -231 12 -8 0 -176 -12 -176 -7 0 -12 -10 -13
-22 0 -13 -6 -77 -12 -144 -12 -120 -4 -261 17 -309 5 -11 12 -28 15 -39 4
-12 12 -16 22 -12 9 4 23 1 30 -5 9 -8 34 -10 69 -6 55 6 70 -3 38 -22 -14 -8
-9 -10 25 -11 40 0 43 2 36 23 l-6 22 24 -22 c13 -13 35 -23 47 -23 21 0 23 4
18 33 -3 17 -3 26 0 20 2 -7 22 -13 44 -13 21 0 39 -4 39 -10 0 -18 29 -11 50
12 16 18 23 20 29 10 6 -10 10 -8 14 8 4 15 11 21 21 17 9 -4 24 2 34 13 12
13 43 24 94 31 74 12 76 13 86 48 8 24 8 39 1 47 -6 7 -8 17 -5 23 3 5 1 11
-6 13 -19 7 -20 230 -1 276 11 27 12 48 5 101 -6 36 -11 75 -11 86 -2 53 -21
232 -26 250 -11 37 -52 326 -65 455 -5 52 -12 124 -16 160 -10 99 -12 561 -3
685 11 158 19 232 29 300 5 33 14 114 21 180 6 66 17 137 25 158 8 20 14 54
14 75 0 20 7 55 15 77 8 22 14 55 15 73 0 18 7 57 15 85 9 29 20 66 24 82 5
17 17 57 26 90 10 33 24 75 32 93 8 18 12 38 10 45 -2 7 4 29 14 49 11 21 19
48 19 62 0 14 4 27 9 30 5 4 17 32 26 64 9 31 32 91 50 132 18 41 40 100 48
130 9 30 24 66 34 80 20 27 39 76 53 128 4 19 15 41 23 50 9 9 25 37 36 62 12
25 30 59 40 75 11 17 20 38 20 47 1 9 5 18 9 20 12 5 112 183 112 200 0 8 11
25 25 38 13 13 36 46 51 74 14 28 42 68 62 89 l36 37 -139 -2 c-121 -1 -130
-2 -65 -8z"/>
<path d="M8385 10701 c3 -5 -6 -18 -20 -29 -14 -11 -25 -27 -25 -36 0 -9 -4
-16 -9 -16 -5 0 -12 -11 -15 -25 -4 -14 -11 -25 -17 -25 -5 0 -19 -19 -29 -43
-10 -23 -32 -61 -49 -84 -16 -22 -39 -60 -51 -84 -12 -23 -29 -49 -36 -57 -8
-7 -14 -22 -14 -33 0 -10 -4 -19 -10 -19 -5 0 -10 -5 -10 -11 0 -6 -9 -23 -19
-38 -29 -40 -171 -323 -171 -340 0 -8 -9 -33 -19 -55 -62 -132 -91 -200 -116
-276 -15 -47 -38 -113 -51 -148 -13 -34 -24 -71 -24 -82 0 -10 -4 -22 -10 -25
-5 -3 -10 -18 -10 -33 0 -15 -13 -68 -30 -117 -16 -50 -30 -104 -30 -121 0
-16 -5 -35 -10 -40 -6 -6 -20 -69 -31 -140 -11 -71 -24 -145 -29 -164 -5 -19
-12 -66 -15 -105 -4 -38 -13 -97 -21 -130 -30 -127 -45 -743 -24 -940 6 -49
13 -126 16 -170 4 -44 10 -84 14 -90 4 -5 13 -64 20 -130 6 -66 18 -142 26
-169 7 -27 12 -52 9 -56 -2 -4 0 -22 5 -41 5 -19 11 -57 13 -85 2 -28 11 -62
20 -75 10 -13 17 -35 17 -49 0 -15 13 -41 29 -59 16 -18 35 -47 41 -64 7 -18
16 -41 20 -52 5 -11 11 -28 14 -38 3 -10 10 -15 16 -12 6 4 10 -5 10 -19 0
-15 6 -26 13 -26 18 0 47 -32 47 -51 0 -30 25 -66 52 -77 20 -7 26 -15 22 -26
-4 -11 0 -16 13 -16 10 0 24 -5 31 -12 16 -16 88 -21 114 -7 15 8 22 8 28 -1
5 -9 9 -9 14 -1 4 6 27 11 51 11 24 0 46 4 49 9 4 5 28 12 55 16 31 4 61 16
78 31 15 13 35 25 43 26 31 3 35 4 47 11 6 4 18 4 27 1 10 -4 18 0 22 10 3 9
17 16 29 16 13 0 26 4 29 9 4 5 25 12 49 16 23 4 52 13 65 21 17 11 22 12 22
2 1 -9 4 -9 13 2 7 8 26 21 42 29 17 8 24 16 18 18 -25 9 -13 21 27 27 29 4
40 11 40 24 1 15 2 15 15 -2 16 -21 17 -21 33 10 9 18 24 22 93 28 93 8 99 10
99 37 0 10 6 19 14 19 8 0 22 7 31 16 11 12 19 13 29 5 10 -8 24 -3 59 24 25
19 52 32 60 29 8 -3 17 2 21 11 4 12 13 15 30 11 19 -5 33 2 62 29 20 19 47
35 60 35 12 0 26 5 29 10 4 6 10 8 15 5 5 -3 14 4 20 15 6 11 21 20 35 20 13
0 27 5 30 11 4 5 23 9 43 8 84 -5 102 -1 102 26 0 14 7 28 15 31 8 4 12 10 9
15 -3 5 9 12 26 16 17 3 37 14 43 24 8 13 19 16 40 12 23 -5 33 -1 51 21 20
26 26 27 96 27 69 0 102 7 102 22 0 28 12 44 29 40 10 -3 25 0 33 6 8 7 23 11
33 9 12 -2 18 4 19 20 2 34 12 38 46 19 32 -18 58 -10 58 19 0 19 10 18 25 -3
11 -15 14 -14 28 14 11 20 24 31 39 32 13 0 46 4 73 8 39 6 50 12 49 26 -1 12
6 17 27 17 15 0 30 4 33 9 3 4 17 6 31 3 15 -2 25 0 25 7 0 6 16 11 36 11 23
0 42 6 50 18 11 14 13 326 14 1760 l0 1742 -1166 0 c-706 0 -1163 -4 -1159 -9z"/>
<path d="M10650 5134 c-25 -8 -65 -17 -90 -20 -25 -3 -71 -16 -102 -28 -37
-15 -59 -19 -61 -12 -2 7 -17 5 -45 -6 -33 -13 -50 -14 -78 -6 -37 10 -68 -2
-44 -17 8 -5 6 -11 -7 -20 -15 -11 -16 -16 -4 -38 19 -36 1 -62 -53 -76 -24
-6 -46 -18 -50 -26 -4 -12 -14 -14 -41 -9 -30 5 -34 4 -29 -10 7 -18 -21 -23
-31 -5 -5 6 -13 3 -22 -10 -8 -12 -20 -21 -27 -21 -22 0 -104 -39 -108 -52 -2
-6 -22 -12 -44 -12 -26 -1 -39 -5 -39 -15 0 -8 -7 -15 -15 -16 -101 -14 -122
-14 -140 -5 -11 6 -20 17 -20 24 0 20 -27 27 -39 12 -6 -8 -30 -16 -52 -20
-36 -6 -73 -22 -129 -55 -8 -5 -35 -14 -59 -21 -24 -6 -54 -22 -66 -36 -21
-22 -55 -25 -55 -4 0 24 -127 21 -153 -4 -7 -6 -31 -24 -54 -40 -40 -27 -53
-28 -95 -11 -15 6 -18 2 -18 -19 0 -14 -6 -27 -12 -28 -59 -7 -76 -18 -99 -64
-12 -25 -28 -48 -35 -51 -8 -3 -14 -16 -14 -29 0 -20 -5 -24 -27 -24 -55 0
-228 -34 -246 -48 -14 -12 -89 -34 -197 -56 -50 -10 -77 -21 -95 -36 -11 -10
-30 -23 -43 -30 -22 -11 -23 -16 -17 -63 5 -37 13 -58 30 -72 18 -15 23 -27
19 -43 -7 -25 -5 -26 28 -13 13 4 46 5 73 2 50 -6 50 -6 56 -48 4 -33 2 -43
-10 -46 -10 -3 -7 -5 7 -6 19 -1 21 -4 13 -20 -7 -13 -7 -29 0 -49 12 -34 38
-44 117 -43 60 0 82 -7 82 -25 0 -8 5 -14 10 -14 6 0 10 -6 10 -13 0 -18 -24
-67 -32 -67 -15 0 -8 -37 12 -60 11 -13 20 -28 20 -34 0 -6 38 -50 83 -98 109
-116 107 -113 107 -143 0 -19 18 -46 65 -93 36 -37 65 -72 65 -78 0 -6 7 -17
15 -24 8 -7 15 -24 15 -38 0 -14 7 -33 16 -43 35 -38 -23 -81 -82 -60 -43 15
-54 14 -54 -8 0 -11 -3 -26 -6 -35 -5 -13 -9 -14 -32 -2 -15 7 -42 17 -59 21
-18 3 -35 11 -38 16 -10 16 -38 10 -31 -6 8 -22 -13 -18 -53 8 -166 109 -188
118 -184 79 2 -13 -2 -32 -8 -43 -8 -16 -7 -25 5 -38 9 -10 16 -22 16 -28 0
-5 9 -18 20 -28 26 -23 26 -39 0 -25 -10 6 -46 13 -80 17 -33 3 -63 10 -66 14
-9 15 -22 10 -29 -12 -4 -13 -1 -27 10 -39 13 -14 14 -23 6 -38 -12 -23 -44
-20 -73 6 -12 9 -28 13 -48 9 -27 -6 -30 -4 -30 18 0 22 -3 23 -37 18 -21 -3
-41 -11 -45 -17 -5 -7 -8 -7 -8 -1 0 6 -7 1 -15 -9 -10 -13 -29 -21 -57 -22
-24 -2 -46 -3 -49 -3 -13 -2 -39 -105 -29 -115 5 -5 10 -14 10 -18 0 -13 -28
-9 -37 5 -4 6 -32 24 -62 39 -50 25 -56 26 -87 13 -22 -9 -52 -12 -89 -8 -36
4 -55 2 -55 -5 0 -16 -84 -9 -111 10 -13 9 -47 38 -74 66 -28 27 -65 58 -83
69 -17 11 -41 31 -52 46 -12 15 -30 27 -40 27 -10 0 -20 7 -24 15 -3 9 -19 15
-41 15 -42 0 -43 -5 -10 -36 31 -29 35 -60 5 -44 -11 6 -20 14 -20 18 0 4 -13
7 -29 8 -43 2 -60 11 -71 39 -6 15 -17 25 -30 25 -11 0 -27 11 -36 25 -9 14
-20 22 -25 19 -5 -3 -4 7 2 23 5 15 7 24 3 20 -4 -4 -14 2 -21 13 -8 11 -18
18 -23 15 -5 -3 -17 4 -28 15 -22 23 -46 25 -127 10 -125 -23 -125 -23 -125
-7 0 13 -24 22 -76 29 -14 2 -6 34 12 49 8 6 14 18 14 25 0 8 3 14 8 14 10 0
32 49 24 54 -16 8 -127 5 -138 -5 -8 -7 -14 -7 -19 1 -3 5 -15 10 -27 10 -14
0 -18 5 -14 15 3 9 -1 18 -9 21 -23 9 -18 33 10 44 24 9 35 30 15 30 -5 0 -10
9 -10 20 0 24 -45 28 -54 5 -8 -21 -102 -21 -110 0 -3 8 2 18 10 23 23 13 13
45 -16 52 -14 4 -56 0 -95 -7 -54 -10 -78 -10 -105 -1 -39 13 -185 13 -240 0
-21 -5 -34 -14 -32 -22 2 -8 -5 -11 -23 -8 -14 3 -46 1 -71 -4 -41 -9 -47 -8
-60 11 -14 19 -23 20 -103 17 -49 -2 -97 -9 -108 -14 -12 -7 -24 -7 -37 0 -29
17 -133 19 -139 4 -3 -8 -20 -16 -39 -19 -68 -10 -164 -28 -208 -39 -25 -6
-52 -11 -60 -12 -9 -1 -20 -5 -26 -9 -16 -10 -25 3 -15 22 6 10 4 27 -4 46 -7
17 -14 24 -14 17 -1 -10 -6 -9 -23 2 -39 25 -94 31 -105 11 -8 -13 -16 -15
-44 -7 l-34 9 35 11 c25 7 29 10 13 11 -12 1 -25 6 -28 11 -3 6 -16 10 -29 10
-12 0 -26 4 -32 10 -11 11 -176 1 -169 -10 6 -9 -19 -20 -46 -20 -10 0 -19 7
-19 15 0 8 -4 15 -10 15 -5 0 -9 -6 -7 -12 1 -9 -19 -14 -70 -16 -50 -2 -73 1
-73 9 0 6 6 9 13 6 7 -3 21 1 30 8 15 11 10 12 -30 11 -27 0 -50 -4 -53 -8
-10 -12 -100 -21 -100 -9 0 12 -62 15 -74 4 -4 -5 -20 -9 -34 -11 -15 -1 -34
-3 -42 -4 -8 0 -98 2 -200 5 -317 12 -345 11 -372 -7 -20 -13 -31 -14 -56 -5
-37 13 -72 -2 -72 -31 0 -27 -51 -39 -145 -35 -98 4 -133 -2 -140 -25 -3 -10
-18 -20 -33 -23 -77 -16 -119 -26 -137 -31 -15 -4 -27 4 -50 34 -16 21 -37 39
-45 40 -18 1 -51 24 -52 37 -1 9 -78 34 -78 25 0 -3 -5 -1 -12 6 -7 7 -22 12
-34 12 -12 0 -24 7 -27 15 -5 12 -12 12 -39 3 -18 -6 -38 -17 -45 -24 -15 -14
-159 -54 -197 -54 -15 0 -35 -4 -45 -9 -12 -7 -32 -5 -62 6 -33 11 -68 14
-140 10 -91 -6 -97 -5 -102 14 -5 20 23 59 42 59 5 0 11 11 13 23 4 22 1 24
-31 23 -30 -1 -36 2 -35 20 0 16 -4 20 -18 16 -10 -2 -18 0 -18 6 0 14 -67 35
-81 26 -8 -5 -9 -3 -4 6 5 9 2 10 -12 6 -11 -4 -38 -9 -59 -11 -62 -8 -158
-31 -183 -44 -12 -7 -30 -14 -39 -16 -9 -3 -35 -10 -57 -16 -22 -6 -58 -13
-80 -16 -22 -3 -44 -9 -50 -13 -5 -4 -29 -11 -51 -15 -30 -4 -44 -13 -52 -30
-6 -13 -20 -26 -31 -30 -17 -5 -19 -10 -10 -32 5 -14 8 -26 7 -27 -2 -1 -22
-14 -46 -29 -23 -15 -57 -30 -75 -33 -17 -4 -51 -13 -75 -20 -26 -8 -59 -12
-82 -8 -32 5 -39 10 -37 28 2 20 -2 21 -73 20 -95 -2 -207 -26 -296 -64 -29
-13 -66 -21 -94 -19 -25 1 -54 -2 -64 -6 -14 -6 -24 -2 -38 18 -26 36 -78 52
-123 37 l-35 -12 0 -1689 0 -1689 5355 0 5355 0 0 404 0 404 -30 12 c-16 7
-30 16 -30 20 0 3 -6 7 -12 8 -63 8 -118 22 -143 35 -42 23 -158 67 -178 67
-9 0 -19 4 -22 10 -3 5 -14 10 -24 10 -10 0 -24 7 -31 15 -10 12 -9 15 6 15
11 -1 30 -7 44 -15 14 -8 38 -14 53 -15 16 0 37 -5 48 -11 11 -6 34 -11 50
-11 16 -1 32 -5 35 -10 3 -4 13 -8 22 -8 9 0 30 -7 46 -15 15 -8 38 -15 51
-15 12 0 43 -6 68 -14 43 -13 47 -13 47 3 0 13 -14 21 -57 31 -32 7 -73 21
-93 31 -19 11 -43 19 -53 19 -9 0 -49 16 -87 35 -39 20 -86 39 -106 43 -48 10
-42 27 9 25 23 0 33 1 23 4 -10 3 -33 14 -50 24 -17 10 -41 19 -53 19 -13 0
-23 6 -23 13 0 7 -24 21 -52 32 -52 19 -52 20 -20 23 49 5 38 17 -29 30 -33 7
-62 19 -65 27 -3 7 -32 23 -65 35 -33 13 -62 27 -65 31 -3 5 -15 9 -26 9 -12
0 -35 11 -52 23 -17 13 -44 31 -61 40 l-30 15 40 1 c22 0 49 0 60 1 37 1 80
-8 120 -24 22 -9 56 -21 75 -26 19 -5 52 -13 73 -18 22 -6 37 -6 37 -1 0 22
49 32 92 20 28 -8 52 -9 67 -3 24 9 24 9 -8 15 -18 4 -46 18 -62 31 -16 14
-47 35 -69 47 -41 23 -51 39 -25 39 8 0 15 7 15 15 0 18 4 18 28 5 9 -5 42
-13 72 -18 30 -5 60 -10 65 -12 6 -1 25 -2 43 -1 30 1 31 3 20 21 -7 11 -20
20 -30 20 -20 0 -30 15 -32 44 -1 12 -11 25 -23 31 -22 9 -29 34 -25 87 2 22
-36 52 -102 79 l-29 12 23 12 c22 12 21 13 -29 51 -27 21 -50 42 -51 47 0 10
18 9 39 -3 10 -5 35 -7 55 -3 29 4 34 8 25 19 -13 16 -6 20 64 29 39 5 50 11
57 31 5 13 14 24 19 24 5 0 13 9 16 20 3 11 13 20 20 20 8 0 17 11 21 24 7 28
-2 49 -17 41 -5 -4 -9 -4 -9 -1 0 3 18 17 40 31 36 23 49 25 147 24 60 -1 114
-1 121 0 9 1 12 310 12 1511 0 831 -3 1510 -7 1509 -5 -1 -28 -7 -53 -15z
m-9077 -1466 c-6 -11 -53 -10 -53 2 0 5 13 8 29 7 16 -1 27 -5 24 -9z m122 -9
c-27 -10 -95 -11 -95 -1 0 15 8 17 62 13 39 -3 48 -6 33 -12z m3585 -159 c0
-5 -4 -10 -10 -10 -5 0 -10 5 -10 10 0 6 5 10 10 10 6 0 10 -4 10 -10z m244
-6 c19 -7 22 -26 4 -23 -7 1 -21 -1 -30 -5 -11 -5 -23 -2 -33 7 -11 12 -12 17
-2 20 18 8 43 8 61 1z m-4846 -181 c-10 -2 -28 -2 -40 0 -13 2 -5 4 17 4 22 1
32 -1 23 -4z m-303 -218 c-55 -26 -115 -33 -115 -12 0 27 25 37 95 37 l70 -1
-50 -24z m8651 -141 c25 -20 42 -39 40 -42 -12 -11 -68 23 -82 49 -19 38 -11
36 42 -7z m-126 16 c13 -8 13 -10 -2 -10 -9 0 -20 5 -23 10 -8 13 5 13 25 0z
m-1010 -302 c0 -13 -23 -5 -28 10 -2 7 2 10 12 6 9 -3 16 -11 16 -16z m2310
-500 c0 -5 -9 -4 -20 2 -11 6 -20 12 -20 14 0 2 9 2 20 -1 11 -3 20 -9 20 -15z
m120 -38 c0 -12 -17 -12 -45 0 -17 7 -15 9 13 9 17 1 32 -3 32 -9z"/>
</g>
</svg>
