<?xml version="1.0" encoding="UTF-8"?>
<svg xmlns="http://www.w3.org/2000/svg" xmlns:xlink="http://www.w3.org/1999/xlink" width="1000"
    height="500" viewBox="0 0 470 231" class="looka-1j8o68f">
    <rect width="100%" height="100%" fill="#222" />
    <defs id="SvgjsDefs2968">
        <linearGradient id="SvgjsLinearGradient2977">
            <stop id="SvgjsStop2978" stop-color="#fbb040" offset="0"></stop>
            <stop id="SvgjsStop2979" stop-color="#f9ed32" offset="1"></stop>
        </linearGradient>
    </defs>
    <g id="SvgjsG2969" featurekey="rootContainer" transform="matrix(1,0,0,1,0,0)" fill="#ffffff">
        <path xmlns="http://www.w3.org/2000/svg" fill-rule="evenodd"
            d=" M0,0 H470 V231 H0,0 z M2,2 H468 V229 H2,2 z M6,6 H464 V225 H6 z M8,8 H462 V223 H6,8 z "></path>
    </g>
    <g id="SvgjsG2970" featurekey="symbolFeature-0"
        transform="matrix(1.1478419604333607,0,0,1.1478419604333607,34.84848634121312,59.138662167215855)"
        fill="url(#SvgjsLinearGradient2977)">
        <title xmlns="http://www.w3.org/2000/svg">Artboard 4</title>
        <polygon xmlns="http://www.w3.org/2000/svg" points="39.6 68.87 42.82 68.87 59.4 29.5 56.18 29.5 39.6 68.87">
        </polygon>
        <polygon xmlns="http://www.w3.org/2000/svg"
            points="66 29.5 66 34.14 81.13 49.17 66 64.21 66 68.84 85.8 49.17 66 29.5"></polygon>
        <polygon xmlns="http://www.w3.org/2000/svg"
            points="33 68.84 33 64.21 17.87 49.17 33 34.14 33 29.5 13.2 49.17 33 68.84"></polygon>
    </g>
    <g id="SvgjsG2971" featurekey="nameFeature-0"
        transform="matrix(2.230586866243879,0,0,2.230586866243879,149.52028142541465,23.946751103310618)"
        fill="#ffffff">
        <path
            d="M7.68 12 l3.2 19.88 l0.08 0 l2.96 -19.88 l6.12 0 l0 28 l-4.16 0 l0 -20.08 l-0.08 0 l-2.96 20.08 l-4.16 0 l-3.2 -19.8 l-0.08 0 l0 19.8 l-3.84 0 l0 -28 l6.12 0 z M30.064999999999998 40 l0 -9.28 l-5.56 -18.72 l4.6 0 l3.32 12.76 l0.08 0 l3.32 -12.76 l4.2 0 l-5.56 18.72 l0 9.28 l-4.4 0 z M61.995000000000005 29.560000000000002 l4.16 0 l0 3.72 c0 4.48 -2.24 7.04 -6.56 7.04 s-6.56 -2.56 -6.56 -7.04 l0 -14.56 c0 -4.48 2.24 -7.04 6.56 -7.04 s6.56 2.56 6.56 7.04 l0 2.72 l-4.16 0 l0 -3 c0 -2 -0.88 -2.76 -2.28 -2.76 s-2.28 0.76 -2.28 2.76 l0 15.12 c0 2 0.88 2.72 2.28 2.72 s2.28 -0.72 2.28 -2.72 l0 -4 z M75.58 18.44 l0 15.12 c0 2 0.88 2.76 2.28 2.76 s2.28 -0.76 2.28 -2.76 l0 -15.12 c0 -2 -0.88 -2.76 -2.28 -2.76 s-2.28 0.76 -2.28 2.76 z M71.17999999999999 33.28 l0 -14.56 c0 -4.48 2.36 -7.04 6.68 -7.04 s6.68 2.56 6.68 7.04 l0 14.56 c0 4.48 -2.36 7.04 -6.68 7.04 s-6.68 -2.56 -6.68 -7.04 z M90.085 40 l0 -28 l6.96 0 c4.4 0 6.56 2.44 6.56 6.92 l0 14.16 c0 4.48 -2.16 6.92 -6.56 6.92 l-6.96 0 z M96.965 16 l-2.48 0 l0 20 l2.48 0 c1.4 0 2.24 -0.72 2.24 -2.72 l0 -14.56 c0 -2 -0.84 -2.72 -2.24 -2.72 z M113.50999999999999 16 l0 7.8 l6.04 0 l0 4 l-6.04 0 l0 8.2 l7.6 0 l0 4 l-12 0 l0 -28 l12 0 l0 4 l-7.6 0 z">
        </path>
    </g>
    <g id="SvgjsG2972" featurekey="nameFeature-1"
        transform="matrix(1.996381604036233,0,0,1.996381604036233,150.2050665159084,100.68226415950734)" fill="#ffffff">
        <path
            d="M1.4 12 l4.4 0 l0 21.6 c0 2 0.88 2.72 2.28 2.72 s2.28 -0.72 2.28 -2.72 l0 -21.6 l4.16 0 l0 21.32 c0 4.48 -2.24 7.04 -6.56 7.04 s-6.56 -2.56 -6.56 -7.04 l0 -21.32 z M29.625 40 l-5.4 -20.28 l-0.08 0 l0 20.28 l-3.96 0 l0 -28 l5.52 0 l4.44 16.76 l0.08 0 l0 -16.76 l3.92 0 l0 28 l-4.52 0 z M40.010000000000005 40 l0 -28 l4.4 0 l0 28 l-4.4 0 z M53.595000000000006 12 l3.32 22.84 l0.08 0 l3.32 -22.84 l4.04 0 l-4.32 28 l-6.56 0 l-4.32 -28 l4.44 0 z M73.5 16 l0 7.8 l6.04 0 l0 4 l-6.04 0 l0 8.2 l7.6 0 l0 4 l-12 0 l0 -28 l12 0 l0 4 l-7.6 0 z M100.205 40 l-4.48 0 c-0.24 -0.72 -0.4 -1.16 -0.4 -3.44 l0 -4.4 c0 -2.6 -0.88 -3.56 -2.88 -3.56 l-1.52 0 l0 11.4 l-4.4 0 l0 -28 l6.64 0 c4.56 0 6.52 2.12 6.52 6.44 l0 2.2 c0 2.88 -0.92 4.72 -2.88 5.64 l0 0.08 c2.2 0.92 2.92 3 2.92 5.92 l0 4.32 c0 1.36 0.04 2.36 0.48 3.4 z M93.045 16 l-2.12 0 l0 8.6 l1.72 0 c1.64 0 2.64 -0.72 2.64 -2.96 l0 -2.76 c0 -2 -0.68 -2.88 -2.24 -2.88 z M104.75000000000001 18.72 c0 -4.48 2.2 -7.04 6.48 -7.04 s6.48 2.56 6.48 7.04 l0 0.88 l-4.16 0 l0 -1.16 c0 -2 -0.8 -2.76 -2.2 -2.76 s-2.2 0.76 -2.2 2.76 c0 2.04 0.88 3.56 3.76 6.08 c3.68 3.24 4.84 5.56 4.84 8.76 c0 4.48 -2.24 7.04 -6.56 7.04 s-6.56 -2.56 -6.56 -7.04 l0 -1.72 l4.16 0 l0 2 c0 2 0.88 2.72 2.28 2.72 s2.28 -0.72 2.28 -2.72 c0 -2.04 -0.88 -3.56 -3.76 -6.08 c-3.68 -3.24 -4.84 -5.56 -4.84 -8.76 z M127.375 16 l0 7.8 l6.04 0 l0 4 l-6.04 0 l0 8.2 l7.6 0 l0 4 l-12 0 l0 -28 l12 0 l0 4 l-7.6 0 z">
        </path>
    </g>
</svg>